<svg xmlns="http://www.w3.org/2000/svg" width="480" height="480" viewBox="0 0 480 480">
<rect width="480" height="480" fill="white"/>
<text x="240.0" y="20" font-size="14" text-anchor="middle" font-family="sans-serif">Temporal Transformer -- Reliability (test)</text>
<line x1="50" y1="430" x2="50" y2="50" stroke="black" stroke-width="1"/>
<line x1="50" y1="430" x2="430" y2="430" stroke="black" stroke-width="1"/>
<line x1="50" y1="430" x2="430" y2="50" stroke="lightgray" stroke-width="1" stroke-dasharray="4,4"/>
<text x="240.0" y="465" font-size="11" text-anchor="middle" font-family="sans-serif">Mean predicted probability</text>
<text x="15" y="240.0" font-size="11" text-anchor="middle" font-family="sans-serif" transform="rotate(-90,15,240.0)">Observed positive rate</text>
<polyline points="54.5,394.2 104.8,386.6 143.9,424.7 181.0,421.3 218.5,430.0 254.6,402.9 292.5,366.7 339.2,335.0 368.2,202.0 426.8,55.1" fill="none" stroke="#d62728" stroke-width="2"/>
<circle cx="54.5" cy="394.2" r="10.0" fill="#d62728" fill-opacity="0.7"/>
<circle cx="104.8" cy="386.6" r="3.5" fill="#d62728" fill-opacity="0.7"/>
<circle cx="143.9" cy="424.7" r="3.2" fill="#d62728" fill-opacity="0.7"/>
<circle cx="181.0" cy="421.3" r="3.1" fill="#d62728" fill-opacity="0.7"/>
<circle cx="218.5" cy="430.0" r="3.1" fill="#d62728" fill-opacity="0.7"/>
<circle cx="254.6" cy="402.9" r="3.0" fill="#d62728" fill-opacity="0.7"/>
<circle cx="292.5" cy="366.7" r="3.0" fill="#d62728" fill-opacity="0.7"/>
<circle cx="339.2" cy="335.0" r="3.0" fill="#d62728" fill-opacity="0.7"/>
<circle cx="368.2" cy="202.0" r="3.0" fill="#d62728" fill-opacity="0.7"/>
<circle cx="426.8" cy="55.1" r="5.2" fill="#d62728" fill-opacity="0.7"/>
<circle cx="340" cy="35" r="5" fill="#d62728"/>
<text x="352" y="39" font-size="11" font-family="sans-serif">Raw</text>
<polyline points="147.8,395.5 179.9,375.7 219.8,416.2 257.2,426.3 294.2,422.5 329.9,408.9 373.3,348.6 410.3,55.7" fill="none" stroke="#1f77b4" stroke-width="2"/>
<circle cx="147.8" cy="395.5" r="10.0" fill="#1f77b4" fill-opacity="0.7"/>
<circle cx="179.9" cy="375.7" r="3.8" fill="#1f77b4" fill-opacity="0.7"/>
<circle cx="219.8" cy="416.2" r="3.3" fill="#1f77b4" fill-opacity="0.7"/>
<circle cx="257.2" cy="426.3" r="3.2" fill="#1f77b4" fill-opacity="0.7"/>
<circle cx="294.2" cy="422.5" r="3.1" fill="#1f77b4" fill-opacity="0.7"/>
<circle cx="329.9" cy="408.9" r="3.0" fill="#1f77b4" fill-opacity="0.7"/>
<circle cx="373.3" cy="348.6" r="3.0" fill="#1f77b4" fill-opacity="0.7"/>
<circle cx="410.3" cy="55.7" r="5.3" fill="#1f77b4" fill-opacity="0.7"/>
<circle cx="340" cy="53" r="5" fill="#1f77b4"/>
<text x="352" y="57" font-size="11" font-family="sans-serif">Calibrated (platt)</text>
</svg>